<svg xmlns="http://www.w3.org/2000/svg" xmlns:xlink="http://www.w3.org/1999/xlink" width="1080" zoomAndPan="magnify" viewBox="0 0 810 809.999993" height="1080" preserveAspectRatio="xMidYMid meet" version="1.0"><defs><clipPath id="c942eeba26"><path d="M 30.65625 39.09375 L 756.65625 39.09375 L 756.65625 765.09375 L 30.65625 765.09375 Z M 30.65625 39.09375 " clip-rule="nonzero"/></clipPath><clipPath id="b33b4f8855"><path d="M 246 39.09375 L 756.65625 39.09375 L 756.65625 549 L 246 549 Z M 246 39.09375 " clip-rule="nonzero"/></clipPath><clipPath id="ca5a8e8c17"><path d="M 30.65625 39.09375 L 756.65625 39.09375 L 756.65625 765.09375 L 30.65625 765.09375 Z M 30.65625 39.09375 " clip-rule="nonzero"/></clipPath><clipPath id="11e5dee012"><path d="M 246 39.09375 L 756.65625 39.09375 L 756.65625 549 L 246 549 Z M 246 39.09375 " clip-rule="nonzero"/></clipPath></defs><g clip-path="url(#c942eeba26)"><path fill="#80f1b1" d="M 670.667969 651.0625 C 670.667969 666.5 658.105469 679.105469 642.625 679.105469 L 144.863281 679.105469 C 129.429688 679.105469 116.867188 666.5 116.867188 651.0625 L 116.867188 153.300781 C 116.867188 137.867188 129.429688 125.304688 144.863281 125.304688 L 429.320312 125.304688 L 429.320312 39.09375 L 144.863281 39.09375 C 82.292969 39.09375 31.304688 89.664062 30.65625 152.097656 L 30.65625 651.0625 C 30.65625 713.589844 81.132812 764.53125 143.472656 765.273438 L 642.625 765.273438 C 705.339844 765.273438 756.417969 714.472656 756.835938 651.898438 L 756.835938 366.609375 L 670.667969 366.609375 L 670.667969 651.0625 " fill-opacity="1" fill-rule="nonzero"/></g><g clip-path="url(#b33b4f8855)"><path fill="#80f1b1" d="M 500.421875 39.09375 L 500.421875 125.304688 L 609.71875 125.304688 L 246.929688 488.09375 L 307.878906 549 L 670.667969 186.257812 L 670.667969 295.507812 L 756.835938 295.507812 L 756.835938 39.09375 L 500.421875 39.09375 " fill-opacity="1" fill-rule="nonzero"/></g><g clip-path="url(#ca5a8e8c17)"><path fill="#80f1b1" d="M 670.667969 651.0625 C 670.667969 666.5 658.105469 679.105469 642.625 679.105469 L 144.863281 679.105469 C 129.429688 679.105469 116.867188 666.5 116.867188 651.0625 L 116.867188 153.300781 C 116.867188 137.867188 129.429688 125.304688 144.863281 125.304688 L 429.320312 125.304688 L 429.320312 39.09375 L 144.863281 39.09375 C 82.292969 39.09375 31.304688 89.664062 30.65625 152.097656 L 30.65625 651.0625 C 30.65625 713.589844 81.132812 764.53125 143.472656 765.273438 L 642.625 765.273438 C 705.339844 765.273438 756.417969 714.472656 756.835938 651.898438 L 756.835938 366.609375 L 670.667969 366.609375 L 670.667969 651.0625 " fill-opacity="1" fill-rule="nonzero"/></g><g clip-path="url(#11e5dee012)"><path fill="#80f1b1" d="M 500.421875 39.09375 L 500.421875 125.304688 L 609.71875 125.304688 L 246.929688 488.09375 L 307.878906 549 L 670.667969 186.257812 L 670.667969 295.507812 L 756.835938 295.507812 L 756.835938 39.09375 L 500.421875 39.09375 " fill-opacity="1" fill-rule="nonzero"/></g></svg>